<svg width="164" height="34" viewBox="0 0 164 34" fill="none" xmlns="http://www.w3.org/2000/svg">
<g clip-path="url(#clip0_18_1607)">
<path d="M19.9867 33.1627H2.99463L21.445 11.4888H38.437L19.9867 33.1627Z" fill="white"/>
<path d="M41.1959 33.1628H24.2039L52.2401 0H69.2322L41.1928 33.1628H41.1959Z" fill="white"/>
<path d="M97.4543 26.1846H99.933C101.199 26.1846 102.198 27.1654 102.198 28.3719C102.198 29.5784 101.199 30.5592 99.933 30.5592H98.7199V32.7465H97.4543V26.1809V26.1846ZM99.933 29.3638C100.461 29.3638 100.933 28.8937 100.933 28.3756C100.933 27.8575 100.457 27.3874 99.933 27.3874H98.7199V29.3675H99.933V29.3638Z" fill="white"/>
<path d="M107.204 26.1847H109.84C111.106 26.1847 112.053 27.121 112.053 28.2165C112.053 28.9567 111.705 29.4268 111.338 29.7265C111.128 29.9042 110.896 30.0485 110.63 30.1447L112.21 32.7502H110.788L109.417 30.352H108.47V32.7502H107.204V26.1847ZM109.84 29.1529C110.379 29.1529 110.788 28.7347 110.788 28.2683C110.788 27.802 110.376 27.3838 109.84 27.3838H108.47V29.1566H109.84V29.1529Z" fill="white"/>
<path d="M117.115 26.1847H118.381V32.7502H117.115V26.1847Z" fill="white"/>
<path d="M123.758 26.1847H124.866L127.131 31.0293L129.397 26.1847H130.505V32.7502H129.239V29.1048L127.551 32.7502H126.708L125.02 29.1048V32.7502H123.754V26.1847H123.758Z" fill="white"/>
<path d="M135.882 26.1847H140.468V27.3838H137.147V28.7902H140.206V29.9893H137.147V31.5511H140.573V32.7502H135.882V26.1847Z" fill="white"/>
<path d="M161.006 22.1801H77.022V23.0905H161.006V22.1801Z" fill="white" fill-opacity="0.15"/>
<path d="M82.4661 5.45902V9.02677H90.4976V12.6685H82.4661V18.7381H78.2463V1.79504H91.4935V5.45902H82.4624H82.4661Z" fill="white"/>
<path d="M94.103 0.669878C94.5448 0.222059 95.1102 0 95.7879 0C96.4656 0 97.0348 0.229461 97.4878 0.680981C97.9409 1.1362 98.1655 1.67655 98.1655 2.30201C98.1655 2.92748 97.9371 3.47893 97.4878 3.90824C97.0348 4.33755 96.4694 4.55221 95.7879 4.55221C95.1065 4.55221 94.5411 4.33755 94.103 3.90824C93.6574 3.47893 93.4365 2.94228 93.4365 2.30201C93.4365 1.66174 93.6574 1.1177 94.103 0.673579V0.669878ZM97.836 18.7307H93.7435V6.04001H97.836V18.7307Z" fill="white"/>
<path d="M109.039 5.66248C110.541 5.66248 111.746 6.1473 112.656 7.11326C113.566 8.08292 114.027 9.35976 114.027 10.9438V18.7307H109.96V11.8024C109.96 11.0585 109.758 10.459 109.346 9.99633C108.934 9.53371 108.406 9.30054 107.759 9.30054C106.924 9.30054 106.272 9.58922 105.804 10.174C105.336 10.7587 105.1 11.6433 105.1 12.8387V18.7307H101.008V6.03998H105.1V7.2539C106.122 6.19542 107.437 5.66248 109.039 5.66248Z" fill="white"/>
<path d="M123.08 5.71057C125.038 5.71057 126.701 6.33604 128.067 7.58327C129.43 8.8305 130.112 10.4293 130.112 12.3871C130.112 14.345 129.43 15.966 128.067 17.2132C126.701 18.4605 125.038 19.0859 123.08 19.0859C121.122 19.0859 119.399 18.4605 118.029 17.2132C116.655 15.966 115.97 14.3561 115.97 12.3871C115.97 10.4182 116.655 8.8305 118.029 7.58327C119.403 6.33604 121.084 5.71057 123.08 5.71057ZM123.08 15.6736C123.915 15.6736 124.638 15.3664 125.252 14.7484C125.866 14.134 126.173 13.3457 126.173 12.3871C126.173 11.4286 125.862 10.6366 125.237 10.0259C124.615 9.41155 123.896 9.10067 123.076 9.10067C122.256 9.10067 121.481 9.40785 120.852 10.0259C120.219 10.6403 119.909 11.4286 119.909 12.3871C119.909 13.3457 120.219 14.1377 120.845 14.7484C121.466 15.3627 122.215 15.6736 123.084 15.6736H123.08Z" fill="white"/>
<path d="M145.28 6.01416L139.963 18.7307H135.792L130.475 6.01416H134.796L137.889 13.8528L140.959 6.01416H145.28Z" fill="white"/>
<path d="M152.746 5.71057C154.704 5.71057 156.367 6.33604 157.733 7.58327C159.096 8.8305 159.778 10.4293 159.778 12.3871C159.778 14.345 159.096 15.966 157.733 17.2132C156.367 18.4605 154.704 19.0859 152.746 19.0859C150.788 19.0859 149.065 18.4605 147.695 17.2132C146.321 15.966 145.635 14.3561 145.635 12.3871C145.635 10.4182 146.321 8.8305 147.695 7.58327C149.069 6.33604 150.75 5.71057 152.746 5.71057ZM152.746 15.6736C153.581 15.6736 154.307 15.3664 154.918 14.7484C155.532 14.134 155.839 13.3457 155.839 12.3871C155.839 11.4286 155.528 10.6366 154.906 10.0259C154.285 9.41155 153.566 9.10067 152.742 9.10067C151.918 9.10067 151.147 9.40785 150.518 10.0259C149.889 10.6403 149.574 11.4286 149.574 12.3871C149.574 13.3457 149.885 14.1377 150.507 14.7484C151.128 15.3627 151.877 15.6736 152.746 15.6736Z" fill="white"/>
</g>
<defs>
<clipPath id="clip0_18_1607">
<rect width="163.863" height="33.1628" fill="white"/>
</clipPath>
</defs>
</svg>
